<svg xmlns="http://www.w3.org/2000/svg" xmlns:xlink="http://www.w3.org/1999/xlink" viewBox="0 0 232.71 222.54"><defs><style>.cls-1{isolation:isolate;}.cls-2{opacity:0.4;mix-blend-mode:multiply;fill:url(#linear-gradient);}.cls-3,.cls-4{fill:#9dcc96;}.cls-3,.cls-7,.cls-8{stroke:#212683;stroke-miterlimit:10;stroke-width:6px;}.cls-5{fill:#f2a7c5;}.cls-6{fill:#cec09f;}.cls-7{fill:none;}.cls-8{fill:#9faed0;}.cls-9{fill:#212683;}</style><linearGradient id="linear-gradient" x1="-1886.99" y1="661.64" x2="-1682.6" y2="661.64" gradientTransform="translate(-1212.2 1493.17) rotate(154.5)" gradientUnits="userSpaceOnUse"><stop offset="0" stop-color="#efa6c2"/><stop offset="1" stop-color="#96cdbd"/></linearGradient></defs><title>Dog</title><g class="cls-1"><g id="Layer_2" data-name="Layer 2"><g id="Layer_1-2" data-name="Layer 1"><path class="cls-2" d="M81.11,164.54a56.58,56.58,0,0,0,15.83-11.22,67.89,67.89,0,1,0,79.55-65.55A56.69,56.69,0,1,0,72.41,58.92a56.68,56.68,0,1,0,8.69,105.62Z"/><path class="cls-3" d="M64.72,125h0l-.51.34c-12.14,7.93-22.85,10.6-28.1,5.93-6.55-5.82-2.78-21.36,8.19-38.45A136.78,136.78,0,0,1,57.11,76c20.28-22.83,43.75-35.09,52.42-27.39a8.23,8.23,0,0,1,1.77,2.23s0,.09.08.14"/><path class="cls-4" d="M140.24,51c0-.05.05-.1.08-.14a8.23,8.23,0,0,1,1.77-2.23c8.67-7.7,32.14,4.56,52.42,27.39a136.78,136.78,0,0,1,12.82,16.83c11,17.09,14.74,32.63,8.19,38.45-5.25,4.67-16,2-28.1-5.93l-.51-.34h0Z"/><path class="cls-5" d="M165.17,170.6H88.59a29.44,29.44,0,0,1-25-44.16l.63-1.09L67.85,119l33.37-57.78a29.19,29.19,0,0,1,10.08-10.4c.61-.38,1.22-.73,1.85-1a29.63,29.63,0,0,1,12.95-3.26c.52,0,1,0,1.55,0a29.61,29.61,0,0,1,13.29,3.61,29.13,29.13,0,0,1,11.28,11.1l37.65,65.2A29.45,29.45,0,0,1,165.17,170.6Z"/><path class="cls-6" d="M126.42,80.42a42,42,0,0,1-58.31,38.72l-.26-.12,33.37-57.78a29.19,29.19,0,0,1,10.08-10.4c.61-.38,1.22-.73,1.85-1l.12.11A41.84,41.84,0,0,1,126.42,80.42Z"/><path class="cls-7" d="M101.54,61.23,63.89,126.44a29.44,29.44,0,0,0,25.5,44.16h75.3a29.44,29.44,0,0,0,25.5-44.16L152.53,61.23A29.44,29.44,0,0,0,101.54,61.23Z"/><path class="cls-8" d="M134,135.4l3.44-6a8,8,0,0,0-6.93-12H123.6a8,8,0,0,0-6.93,12l3.44,6A8,8,0,0,0,134,135.4Z"/><line class="cls-7" x1="127.04" y1="139.4" x2="127.04" y2="170.6"/><circle class="cls-8" cx="106.16" cy="94.43" r="7.49"/><circle class="cls-8" cx="147.91" cy="94.43" r="7.49"/><path class="cls-7" d="M140.42,51a8.72,8.72,0,0,1,.6-1,7.59,7.59,0,0,1,1.25-1.4c5.74-5.1,18-1.44,31.49,8.25"/><path class="cls-7" d="M189.22,70.17c1.84,1.86,3.67,3.8,5.47,5.83,20.27,22.83,29.68,47.58,21,55.28-4.81,4.28-14.19,2.4-25.07-4h0"/><path class="cls-7" d="M113.68,49.68a43.06,43.06,0,0,1-46.3,70.72"/><circle class="cls-9" cx="182.17" cy="62.92" r="2.69"/><path class="cls-9" d="M50.4,6.51H47.64V3.75a3.4,3.4,0,0,0-6.79,0V6.51H38.09a3.4,3.4,0,0,0,0,6.79h2.76v2.76a3.4,3.4,0,0,0,6.79,0V13.3H50.4a3.4,3.4,0,0,0,0-6.79Z"/><path class="cls-9" d="M215.53,10.91h-2.76V8.15a3.4,3.4,0,0,0-6.79,0v2.76h-2.76a3.4,3.4,0,0,0,0,6.79H206v2.76a3.4,3.4,0,0,0,6.79,0V17.7h2.76a3.4,3.4,0,0,0,0-6.79Z"/><path class="cls-9" d="M39,192.5H36.27v-2.76a3.4,3.4,0,0,0-6.79,0v2.76H26.72a3.4,3.4,0,0,0,0,6.79h2.76V202a3.4,3.4,0,0,0,6.79,0v-2.76H39a3.4,3.4,0,0,0,0-6.79Z"/></g></g></g></svg>