<?xml version="1.0" encoding="utf-8"?>
<!-- Generator: Adobe Illustrator 22.0.1, SVG Export Plug-In . SVG Version: 6.00 Build 0)  -->
<svg version="1.1" xmlns="http://www.w3.org/2000/svg" xmlns:xlink="http://www.w3.org/1999/xlink" x="0px" y="0px"
	 viewBox="0 0 512 512" style="enable-background:new 0 0 512 512;" xml:space="preserve">
<style type="text/css">
	.st0{fill:#E9B12D;}
	.st1{fill:#A9E7D8;}
	.st2{fill:#76CFB1;}
	.st3{fill:#AE6B5D;}
	.st4{fill:#7770D3;}
	.st5{fill:#5BA0F5;}
	.st6{fill:#DA4545;}
	.st7{fill:#89CCFC;}
	.st8{fill:#CD462A;}
	.st9{fill:#514896;}
	.st10{fill:#5493A0;}
	.st11{fill:#CC6B5C;}
	.st12{fill:#62AA8D;}
	.st13{fill:#8ABAAB;}
	.st14{fill:#C3791F;}
	.st15{fill:#E39123;}
	.st16{fill:#FFFFFF;}
	.st17{fill:none;stroke:#FFFFFF;stroke-width:10;stroke-linecap:round;stroke-miterlimit:10;}
	.st18{fill:none;stroke:#5F55AB;stroke-width:10;stroke-linecap:round;stroke-miterlimit:10;}
	.st19{fill:#A9671C;}
	.st20{fill:#D5B3A7;}
	.st21{fill:#C09A8F;}
	.st22{fill:#487F87;}
	.st23{fill:#1B305C;}
	.st24{fill:#172945;}
	.st25{fill:none;}
	.st26{fill:#B62A2A;}
	.st27{fill:#325859;}
	.st28{fill:#3F6E71;}
	.st29{fill:#284646;}
	.st30{fill:#8F2727;}
	.st31{fill:#29477C;}
	.st32{fill:#5B9BEE;}
	.st33{fill:#487FDE;}
	.st34{fill:#CD9829;}
	.st35{fill:#9F2A2A;}
	.st36{fill:#4C3328;}
	.st37{fill:#E8B94A;}
	.st38{fill:#DDF8F1;}
	.st39{fill:#3E2A22;}
	.st40{fill:#D3A971;}
	.st41{fill:#C79A5B;}
	.st42{fill:#233E76;}
	.st43{fill:#21395F;}
	.st44{fill:#487D82;}
	.st45{fill:none;stroke:#C79A5B;stroke-width:10;stroke-linecap:round;stroke-miterlimit:10;}
	.st46{fill:#5E3E31;}
	.st47{fill:#AC3939;}
	.st48{fill:#CA9628;}
	.st49{fill:#AF8F88;}
	.st50{fill:#815048;}
	.st51{fill:#6F4232;}
	.st52{fill:#5F55AB;}
	.st53{fill:#192A48;}
	.st54{fill:#152336;}
	.st55{fill:#192B49;}
	.st56{fill:#264173;}
	.st57{fill:#B06F1E;}
	.st58{fill:#4E88C0;}
	.st59{fill:#83C3F1;}
	.st60{fill:#CF9929;}
	.st61{fill:none;stroke:#FFFFFF;stroke-width:10;stroke-linecap:round;stroke-linejoin:round;stroke-miterlimit:10;}
	.st62{fill:#EAC262;}
	.st63{fill:#D6D5D4;}
	.st64{fill:#6BBA9B;}
	.st65{fill:#63AA8F;}
	.st66{fill:none;stroke:#3E2A22;stroke-width:10;stroke-linecap:round;stroke-miterlimit:10;}
	.st67{fill:#CA7D1F;}
	.st68{fill:#213B64;}
	.st69{fill:#CDF8EC;}
	.st70{fill:#C59125;}
	.st71{fill:none;stroke:#C09A8F;stroke-width:10;stroke-linecap:round;stroke-miterlimit:10;}
	.st72{fill:#32579B;}
	.st73{fill:#172843;}
	.st74{fill:#D66767;}
	.st75{fill:#A74949;}
	.st76{fill:#EBC76F;}
	.st77{fill:#7A4940;}
	.st78{fill:#182A48;}
	.st79{fill:none;stroke:#A0794A;stroke-width:10;stroke-linecap:round;stroke-miterlimit:10;}
	.st80{fill:#C37A20;}
	.st81{fill:#D26D5C;}
	.st82{fill:#A45752;}
	.st83{fill:#284579;}
	.st84{fill:#88C7F4;}
	.st85{fill:#6EB6F0;}
	.st86{fill:#32221E;}
	.st87{fill:#E7A6A6;}
	.st88{fill:#C59191;}
	.st89{fill:#AA3B3B;}
	.st90{fill:#B83E3E;}
	.st91{fill:none;stroke:#5F55A9;stroke-width:10;stroke-linecap:round;stroke-miterlimit:10;}
	.st92{fill:#963838;}
	.st93{fill:#402B25;}
	.st94{fill:#6B6ABA;}
	.st95{fill:#BABABA;}
	.st96{fill:#D1D1D1;}
	.st97{fill:#264377;}
	.st98{fill:#A19BF5;}
	.st99{fill:#3C2A21;}
	.st100{fill:none;stroke:#4C3328;stroke-width:10;stroke-linecap:round;stroke-miterlimit:10;}
	.st101{fill:#C1781F;}
	.st102{fill:#E3A147;}
	.st103{fill:#F2D2A1;}
	.st104{fill:#4F372D;}
	.st105{fill:none;stroke:#DA4545;stroke-width:10;stroke-linecap:round;stroke-miterlimit:10;}
	.st106{fill:#AA3928;}
	.st107{fill:#8C2C22;}
	.st108{fill:#BF4336;}
	.st109{fill:#5797D4;}
	.st110{fill:#CFCFCF;}
	.st111{fill:#613A2E;}
	.st112{fill:none;stroke:#B18653;stroke-width:10;stroke-linecap:round;stroke-miterlimit:10;}
	.st113{fill:#B13B3B;}
	.st114{fill:#16263A;}
	.st115{fill:none;stroke:#16263A;stroke-width:10;stroke-miterlimit:10;}
	.st116{fill:#C87D20;}
	.st117{fill:#E4F0FD;}
	.st118{fill:#AA3737;}
	.st119{fill:#BF771F;}
	.st120{fill:none;stroke:#CD462A;stroke-width:10;stroke-linejoin:round;stroke-miterlimit:10;}
	.st121{fill:#5696D2;}
	.st122{fill:#C0771E;}
	.st123{fill:#9B5F1B;}
	.st124{fill:#A83A29;}
	.st125{fill:#E7A74F;}
	.st126{fill:#C9924C;}
	.st127{fill:#C58E48;}
	.st128{fill:#BE8844;}
	.st129{fill:#916939;}
	.st130{fill:#264275;}
	.st131{fill:#253F65;}
	.st132{fill:#182A45;}
	.st133{fill:#162336;}
	.st134{fill:#93C7B7;}
	.st135{fill:#E6A4A4;}
	.st136{fill:#B06B1D;}
	.st137{fill:#484185;}
	.st138{fill:#DB6E6E;}
	.st139{fill:#6BBA9A;}
	.st140{fill:#CACCCC;}
	.st141{fill:#D4D4D4;}
	.st142{fill:#A98881;}
	.st143{fill:#213A62;}
	.st144{fill:#A2837D;}
	.st145{fill:#6FB8F4;}
	.st146{fill:#9B9E9E;}
	.st147{fill:#B2B3B3;}
	.st148{fill:#20385D;}
	.st149{fill:#335AA8;}
	.st150{fill:#BCE7FD;}
	.st151{fill:#3B2921;}
	.st152{fill:#AD3C3C;}
	.st153{fill:#9D3838;}
	.st154{fill:#603F33;}
	.st155{fill:#4D868B;}
	.st156{fill:#A2DDFD;}
	.st157{fill:#ECB6B6;}
	.st158{fill:#E8A346;}
	.st159{fill:#514C94;}
	.st160{fill:#D2F1E8;}
	.st161{fill:#BDD6CE;}
	.st162{fill:#B93B29;}
	.st163{fill:#E0AD70;}
	.st164{fill:#C57C21;}
	.st165{fill:#EDA34A;}
	.st166{fill:#2F538F;}
	.st167{fill:#2B4B78;}
	.st168{fill:#65AF91;}
	.st169{fill:#A7CEFC;}
	.st170{fill:#98BDE2;}
	.st171{fill:#CFE5F7;}
	.st172{fill:#5492CD;}
	.st173{fill:#97CCBC;}
	.st174{fill:#5491CA;}
	.st175{fill:#EDC563;}
	.st176{fill:#423C79;}
	.st177{fill:#D3B1A5;}
	.st178{fill:#BE988D;}
	.st179{fill:#A7E5D6;}
	.st180{fill:#F2FFF9;}
	.st181{fill:#D64545;}
	.st182{fill:#A73B3B;}
	.st183{fill:#15233A;}
	.st184{fill:none;stroke:#BE988D;stroke-width:10;stroke-linecap:round;stroke-miterlimit:10;}
	.st185{fill:#AF3A29;}
	.st186{fill:#FAF9FF;}
	.st187{fill:#CACACC;}
	.st188{fill:#372720;}
	.st189{fill:#3F2C26;}
	.st190{fill:#2D201C;}
	.st191{fill:#3D6D6F;}
	.st192{fill:#5B54A8;}
	.st193{fill:#325799;}
	.st194{fill:#E8C26E;}
	.st195{fill:#254784;}
	.st196{fill:#5696D4;}
	.st197{fill:#4F8AB6;}
	.st198{fill:#5FA4AC;}
	.st199{fill:#AA3524;}
	.st200{fill:#D15F4D;}
	.st201{fill:#2B294C;}
	.st202{fill:#A43A2A;}
	.st203{fill:#E7AE2D;}
	.st204{fill:#CD9729;}
	.st205{fill:none;stroke:#AA8253;stroke-width:10;stroke-linecap:round;stroke-miterlimit:10;}
	.st206{fill:none;stroke:#E18F23;stroke-width:10;stroke-linecap:round;stroke-linejoin:round;stroke-miterlimit:10;}
	.st207{fill:#CF9828;}
	.st208{fill:#B88926;}
	.st209{fill:#A17623;}
	.st210{fill:#96CCBC;}
	.st211{fill:#CF9A2A;}
	.st212{fill:#C57B20;}
	.st213{fill:#C7F1E6;}
	.st214{fill:#DC6363;}
	.st215{fill:#E89F9F;}
	.st216{fill:#C88C8C;}
	.st217{fill:#C16E6E;}
	.st218{fill:#A46060;}
	.st219{fill:#AA3626;}
	.st220{fill:#87EDC4;}
	.st221{fill:#D86552;}
	.st222{fill:#BC7620;}
	.st223{fill:#BA741E;}
	.st224{fill:#8F8CE3;}
	.st225{fill:#3A2820;}
	.st226{fill:#AC7060;}
	.st227{fill:#915F55;}
	.st228{fill:#49332A;}
	.st229{fill:#2D1F1B;}
	.st230{fill:#69B7BE;}
	.st231{fill:#D6D6D6;}
	.st232{fill:#B8B8B8;}
	.st233{fill:#CACACA;}
	.st234{fill:#467B80;}
	.st235{fill:#C2EDE2;}
	.st236{fill:#A9574F;}
	.st237{fill:#5595D2;}
	.st238{fill:#955949;}
	.st239{fill:#7E4B42;}
	.st240{fill:#89CCF1;}
	.st241{fill:#DD584A;}
	.st242{fill:#C18F26;}
	.st243{fill:#B33C2A;}
	.st244{fill:#D1A771;}
	.st245{fill:#B42A2A;}
	.st246{fill:#325797;}
	.st247{fill:#9F3529;}
	.st248{fill:#EDCE80;}
	.st249{fill:#F0DBAC;}
	.st250{fill:#CFB478;}
	.st251{fill:#D4C29B;}
	.st252{fill:#993939;}
	.st253{fill:#D1AFA3;}
	.st254{fill:#BC968B;}
	.st255{fill:none;stroke:#BC968B;stroke-width:10;stroke-linecap:round;stroke-miterlimit:10;}
	.st256{fill:#814C3C;}
	.st257{fill:#C0EBE0;}
	.st258{fill:#A5E3D4;}
	.st259{fill:#15243C;}
	.st260{fill:#443E79;}
	.st261{fill:#F0FFF7;}
	.st262{fill:#9A764B;}
	.st263{fill:#826443;}
	.st264{fill:#D9AA74;}
	.st265{fill:#5DA186;}
	.st266{fill:#68B596;}
	.st267{fill:#E5C6BE;}
	.st268{fill:#D3B6B1;}
	.st269{fill:none;stroke:#BAA09C;stroke-width:10;stroke-linecap:round;stroke-miterlimit:10;}
	.st270{fill:#F4D78F;}
	.st271{fill:#20385F;}
	.st272{fill:#BA8727;}
	.st273{fill:#5A9C82;}
	.st274{fill:none;stroke:#E39123;stroke-width:10;stroke-linecap:round;stroke-linejoin:round;stroke-miterlimit:10;}
	.st275{fill:#60392D;}
	.st276{fill:#CCCCCC;}
	.st277{fill:#844F3E;}
	.st278{fill:#F3FFFB;}
	.st279{fill:#365E60;}
	.st280{fill:#D84545;}
	.st281{fill:#A83B3B;}
	.st282{fill:#253F70;}
	.st283{fill:#EAADAD;}
	.st284{fill:#443E7C;}
	.st285{fill:#3D6B9F;}
	.st286{fill:#4274BC;}
	.st287{fill:#AF3827;}
	.st288{fill:#E59D9D;}
	.st289{fill:#C48989;}
	.st290{fill:none;stroke:#9B621A;stroke-width:10;stroke-linecap:round;stroke-linejoin:round;stroke-miterlimit:10;}
	.st291{fill:#213A5E;}
	.st292{fill:#2D507A;}
	.st293{fill:#528EC8;}
	.st294{fill:#EFD696;}
	.st295{fill:#D1BA87;}
	.st296{fill:#FDFCFC;}
	.st297{fill:#86CBFC;}
	.st298{fill:#7AB7DA;}
	.st299{fill:#192C4C;}
	.st300{fill:#BCBCBC;}
	.st301{fill:#A13838;}
	.st302{fill:#75BDF6;}
	.st303{fill:#D0B1AA;}
	.st304{fill:#142233;}
	.st305{fill:#E6C4BB;}
	.st306{fill:#BDBDBD;}
	.st307{fill:#E8A192;}
	.st308{fill:#A43939;}
	.st309{fill:#162640;}
	.st310{fill:#27457C;}
	.st311{fill:#EFBE5E;}
	.st312{fill:#87EDC5;}
	.st313{fill:#A03838;}
	.st314{fill:#833232;}
	.st315{fill:#47417F;}
	.st316{fill:none;stroke:#915F55;stroke-width:10;stroke-linecap:round;stroke-miterlimit:10;}
	.st317{fill:#BC8B25;}
	.st318{fill:#473129;}
	.st319{fill:#67B394;}
	.st320{fill:#599A80;}
	.st321{fill:#B13D3D;}
</style>
<g id="BULINE">
	<g>
		<circle id="XMLID_2920_" class="st10" cx="256" cy="256" r="256"/>
	</g>
</g>
<g id="Icons">
	<g id="XMLID_3140_">
		<circle id="XMLID_3149_" class="st233" cx="254.3" cy="52.3" r="47.3"/>
		<path id="XMLID_3935_" class="st16" d="M375.2,152.8c0-0.6-0.1-1.2-0.1-1.9c-5.2-62-57.1-110.7-120.5-110.7h0
			c-66.8,0-120.9,54.1-120.9,120.9v40.9v13.8v7.5c0,28.9,17.6,53.8,42.7,64.4c0,0,0,0,0,0c0,0,0,0,0.1,0.1c0,0,0,0,0,0
			c0.5,0.6,1,1.2,1.6,1.7c0.5,0.6,1.1,1.1,1.6,1.7c0.5,0.6,1.1,1.1,1.6,1.7c1.1,1.1,2.2,2.2,3.4,3.2c0.6,0.5,1.2,1,1.8,1.5
			c0.6,0.5,1.2,1,1.8,1.5c2.1,1.7,4.2,3.3,6.3,4.8c0.5,0.4,1,0.7,1.5,1c0.6,0.4,1.2,0.8,1.8,1.2c0.5,0.4,1.1,0.7,1.6,1
			c0.1,0.1,0.2,0.1,0.3,0.2c0.6,0.4,1.2,0.8,1.9,1.1c0,0,0.1,0.1,0.1,0.1c0.5,0.3,1,0.6,1.5,0.9c0.3,0.2,0.6,0.3,0.9,0.5
			c0.5,0.3,1,0.6,1.5,0.8c0,0,0.1,0.1,0.1,0.1c0,0,0,0,0,0l0,0c0.6,0.3,1.2,0.6,1.8,0.9c0.6,0.3,1.3,0.6,1.9,0.9
			c0.4,0.2,0.9,0.4,1.3,0.6c5.5,2.5,11.2,4.6,17.1,6.1c0.4,0.1,0.8,0.2,1.2,0.3c0.5,0.1,1,0.2,1.5,0.4c0.2,0.1,0.4,0.1,0.7,0.2
			c0.6,0.1,1.2,0.3,1.8,0.4l0.8,0.1c0.5,0.1,1,0.2,1.5,0.3c0.5,0.1,1.1,0.2,1.7,0.3c0.1,0,0.2,0.1,0.4,0.1c0.6,0.1,1.1,0.2,1.7,0.3
			c0.5,0.1,1,0.1,1.5,0.2c0.3,0,0.7,0.1,1,0.1c0.4,0.1,0.8,0.1,1.2,0.1c0.5,0.1,1,0.1,1.5,0.2c0.3,0,0.6,0.1,0.9,0.1
			c0.5,0.1,1,0.1,1.5,0.1c0.7,0.1,1.4,0.1,2.1,0.1c0.5,0,1.1,0,1.6,0.1c0.5,0,1,0,1.5,0c0.8,0,1.7,0,2.5,0c2.4,0,4.8-0.1,7.1-0.2
			c0.5,0,1.1-0.1,1.6-0.1c0.4,0,0.8-0.1,1.1-0.1c0.7-0.1,1.4-0.1,2.2-0.2c0.5,0,0.9-0.1,1.4-0.2c0.3,0,0.6-0.1,0.9-0.1
			c0.6-0.1,1.2-0.2,1.8-0.3c0.9-0.1,1.7-0.3,2.6-0.4c0.5-0.1,1.1-0.2,1.6-0.3c0,0,0,0-0.1,0c18.9-3.7,35.9-12.4,49.6-24.8
			c2.8-2.5,5.5-5.2,8-8c25.5-10.5,43.4-35.5,43.4-64.7v-7.5v-13.8v-40.9C375.5,158.4,375.4,155.6,375.2,152.8z"/>
		<path id="XMLID_3226_" class="st234" d="M506.8,307.8c-8.4,40.6-26.3,77.7-51.4,108.8C408.4,474.8,336.6,512,256,512
			c-21.3,0-42-2.6-61.8-7.5c-8.9-2.2-17.7-4.9-26.2-8c-4.7-1.7-9.2-3.5-13.8-5.5c-1.9-0.8-3.7-1.6-5.6-2.5
			c-8.3-3.8-16.4-8.1-24.2-12.8c-0.2-0.1-0.4-0.2-0.7-0.4c-58.7-35.4-102-93.7-117.5-162.5c13.4-6.3,38.8-12.6,72.3,4.5
			c0,0,37.9,46.9,76.5,8c0,0,18.6-9.9,45.7-17.2c7.8-2.1,16.2-4,25.2-5.4c0.1,0,0.3,0,0.4-0.1c2.7-0.4,5.3-0.8,8.1-1.1
			c4.3-0.5,8.6-0.8,13.1-1c11.4-0.5,23.3,0,35.1,2.2c7.9,1.4,15.8,3.6,23.6,6.5c6.9,2.7,13.8,6,20.4,10.1c0,0,32.2,31.7,77.8,13.4
			c7.5-3,15.4-7.4,23.5-13.4h0C428,319.3,470.7,299.1,506.8,307.8z"/>
		<path id="XMLID_3190_" class="st6" d="M455.3,379.3v37.3C408.4,474.8,336.6,512,256,512c-21.3,0-42-2.6-61.8-7.5
			c-8.9-2.2-17.7-4.9-26.2-8c-4.7-1.7-9.2-3.5-13.8-5.5c-1.9-0.8-3.7-1.6-5.6-2.5c-8.3-3.8-16.4-8.1-24.2-12.8
			c-0.2-0.1-0.4-0.2-0.7-0.4v-84.4c0-17.7,10.1-33.1,24.8-40.7c5.9-3,12.5-4.8,19.5-5.1c0.5,0,1,0,1.5,0H339
			c25.3,0,45.8,20.5,45.8,45.8v42c0,2.2,0.9,4.2,2.3,5.6c1.4,1.4,3.4,2.3,5.6,2.3c4.4,0,8-3.6,8-7.9v-53.6H455.3z"/>
		<path id="XMLID_2613_" class="st26" d="M200,345.1c-0.5,0-1.1,0-1.6,0c-1.4,0-2.8,0.2-4.2,0.3c-10.1,1.3-19.2,5.9-26.1,12.7
			c-8.5,8.3-13.8,19.9-13.8,32.7V491c-1.9-0.8-3.7-1.6-5.6-2.5c-8.3-3.8-16.4-8.1-24.2-12.8v-84.8c0-17.5,9.8-32.6,24.2-40.4
			c5.9-3.1,12.5-5,19.5-5.4c0.7,0,1.4-0.1,2.2-0.1H200z"/>
		<ellipse id="XMLID_3151_" class="st16" cx="255.1" cy="361.3" rx="66.1" ry="31.5"/>
		<path id="XMLID_3148_" class="st20" d="M261.9,364.2h-14.7c-11.8,0-21.4-9.6-21.4-21.4v-35.2c0-11.8,9.6-21.4,21.4-21.4h14.7
			c11.8,0,21.4,9.6,21.4,21.4v35.2C283.3,354.7,273.7,364.2,261.9,364.2z"/>
		<path id="XMLID_3147_" class="st21" d="M264.6,364c-1,0.1-2,0.2-3.1,0.2h-14.7c-11.8,0-21.4-9.6-21.4-21.4v-35.2
			c0-11.8,9.6-21.4,21.4-21.4h14.7c1,0,2.1,0.1,3.1,0.2c-10.3,1.5-18.3,10.4-18.3,21.2v35.2C246.3,353.6,254.2,362.5,264.6,364z"/>
		<path id="XMLID_3145_" class="st20" d="M361.2,187.7h-2.4L265.6,115c-6.4-5-15.3-5-21.6,0l-93.8,72.7h-2c-8,0-14.4,6.5-14.4,14.4
			v13.8c0,8,6.5,14.4,14.4,14.4h2.6c0,0.1,0,0.2,0,0.3c0.1,0.7,0.2,1.4,0.2,2c0,0.1,0,0.2,0,0.3c0.1,0.8,0.2,1.5,0.3,2.2
			c0.1,0.8,0.3,1.6,0.4,2.4c0.6,3.2,1.3,6.3,2.2,9.4c0.2,0.8,0.5,1.5,0.7,2.3c0.5,1.5,1,3,1.5,4.5c0,0,0,0,0,0
			c0.2,0.7,0.5,1.3,0.7,2c0.1,0.1,0.1,0.3,0.2,0.4c0.3,0.7,0.5,1.4,0.8,2c0.2,0.6,0.5,1.2,0.8,1.8c0.1,0.2,0.2,0.5,0.3,0.7
			c0.2,0.5,0.4,0.9,0.6,1.3c0.1,0.3,0.3,0.7,0.5,1c0.2,0.4,0.4,0.8,0.6,1.3c0.1,0.2,0.2,0.4,0.3,0.5c1,2,2.1,4,3.2,6
			c0.8,1.3,1.6,2.6,2.4,3.9c0.9,1.3,1.8,2.7,2.7,3.9c0.9,1.3,1.8,2.5,2.8,3.8c0.5,0.6,1,1.2,1.4,1.8c0.5,0.6,1,1.2,1.5,1.7
			c0,0,0,0.1,0.1,0.1c0.5,0.6,1,1.1,1.4,1.6c0,0,0,0,0.1,0.1c0.5,0.6,1,1.2,1.6,1.7c0.5,0.6,1.1,1.1,1.6,1.7
			c0.5,0.6,1.1,1.1,1.7,1.7c1.1,1.1,2.2,2.2,3.4,3.2c0.6,0.5,1.2,1,1.8,1.5c0.6,0.5,1.2,1,1.8,1.5c2,1.7,4.2,3.3,6.3,4.8
			c0.5,0.4,1,0.7,1.5,1c0.6,0.4,1.2,0.8,1.8,1.2c0.5,0.4,1.1,0.7,1.6,1c0.1,0.1,0.2,0.1,0.3,0.2c0.6,0.4,1.2,0.8,1.9,1.1
			c0,0,0.1,0,0.1,0.1c0.5,0.3,1,0.6,1.5,0.9c0.3,0.2,0.6,0.3,0.9,0.5c0.5,0.3,1,0.6,1.5,0.8c0,0,0.1,0,0.1,0.1
			c0.6,0.3,1.2,0.6,1.8,0.9c0.6,0.3,1.3,0.6,1.9,0.9c0.4,0.2,0.9,0.4,1.3,0.6c5.5,2.5,11.2,4.6,17.1,6.2c0.4,0.1,0.8,0.2,1.2,0.3
			c0.5,0.1,1,0.2,1.5,0.4c0.2,0.1,0.5,0.1,0.7,0.2c0.6,0.1,1.2,0.3,1.8,0.4l0.8,0.1c0.5,0.1,1,0.2,1.5,0.3c0.5,0.1,1.1,0.2,1.7,0.3
			c0.1,0,0.2,0,0.4,0.1c0.5,0.1,1.1,0.2,1.7,0.3c0.5,0.1,1,0.1,1.5,0.2c0.3,0.1,0.7,0.1,1,0.1c0.4,0.1,0.8,0.1,1.2,0.1
			c0.5,0.1,1,0.1,1.5,0.2c0.3,0,0.6,0.1,0.9,0.1c0.5,0,1,0.1,1.5,0.1c0.7,0,1.4,0.1,2.1,0.1c0.5,0,1.1,0,1.6,0.1c0.5,0,1,0,1.5,0
			c0.8,0,1.7,0,2.5,0c2.4,0,4.8-0.1,7.1-0.2c0.5,0,1-0.1,1.6-0.1c0.4,0,0.8-0.1,1.1-0.1c0.7-0.1,1.4-0.1,2.2-0.2
			c0.5-0.1,1-0.1,1.4-0.2c0.3,0,0.6-0.1,0.9-0.1c0.6-0.1,1.2-0.2,1.8-0.3c0.9-0.1,1.7-0.3,2.6-0.4c19.5-3.5,37-12.4,51.2-25.1
			c2.8-2.5,5.5-5.2,8-8c14.1-15.7,23.4-35.7,25.9-57.8h3.1c8,0,14.4-6.4,14.4-14.4v-13.8C375.6,194.2,369.2,187.7,361.2,187.7z"/>
		<path id="XMLID_3136_" class="st21" d="M274.7,321c-0.5,0.1-1.1,0.2-1.6,0.3c-0.9,0.2-1.7,0.3-2.6,0.4c-0.6,0.1-1.2,0.2-1.8,0.3
			c-0.3,0-0.6,0.1-0.9,0.1c-0.5,0.1-1,0.1-1.4,0.2c-0.7,0.1-1.4,0.2-2.2,0.2c-0.4,0-0.8,0.1-1.1,0.1c-0.5,0-1,0.1-1.6,0.1
			c-2.3,0.2-4.7,0.2-7.1,0.2c-0.8,0-1.7,0-2.5,0c-0.5,0-1,0-1.5,0c-0.5,0-1.1,0-1.6-0.1c-0.7,0-1.4-0.1-2.1-0.1
			c-0.5,0-1-0.1-1.5-0.1c-0.3,0-0.6,0-0.9-0.1c-0.5,0-1-0.1-1.5-0.2c-0.4,0-0.8-0.1-1.2-0.1c-0.3,0-0.7-0.1-1-0.1
			c-0.5-0.1-1-0.1-1.5-0.2c-0.6-0.1-1.1-0.2-1.7-0.3c-0.1,0-0.2,0-0.4-0.1c-0.6-0.1-1.1-0.2-1.7-0.3c-0.5-0.1-1-0.2-1.5-0.3
			l-0.8-0.2c-0.6-0.1-1.2-0.2-1.8-0.4c-0.2-0.1-0.5-0.1-0.7-0.2c-0.5-0.1-1-0.2-1.5-0.4c-0.4-0.1-0.8-0.2-1.2-0.3
			c-5.9-1.6-11.7-3.6-17.1-6.2c-0.5-0.2-0.9-0.4-1.3-0.6c-0.6-0.3-1.3-0.6-1.9-0.9c-0.6-0.3-1.2-0.6-1.8-0.9c-0.1,0-0.1,0-0.1-0.1
			c-0.5-0.3-1-0.5-1.5-0.8c-0.3-0.2-0.6-0.3-0.9-0.5c-0.5-0.3-1-0.6-1.5-0.9c0,0-0.1,0-0.1-0.1c-0.6-0.4-1.2-0.7-1.9-1.1
			c-0.1-0.1-0.2-0.1-0.3-0.2c-0.5-0.3-1.1-0.7-1.6-1c-0.6-0.4-1.2-0.8-1.8-1.2c-0.5-0.3-1-0.7-1.5-1c-2.2-1.5-4.3-3.1-6.3-4.8
			c-0.6-0.5-1.2-1-1.8-1.5c-0.6-0.5-1.2-1-1.8-1.5c-1.2-1-2.3-2.1-3.4-3.2c-0.6-0.6-1.1-1.1-1.7-1.7c-0.5-0.5-1.1-1.1-1.6-1.7
			c-0.5-0.6-1.1-1.1-1.6-1.7c0,0-0.1,0-0.1-0.1c-0.5-0.5-1-1.1-1.4-1.7c0,0-0.1,0-0.1-0.1c-0.5-0.6-1-1.2-1.5-1.7
			c-0.5-0.6-1-1.2-1.5-1.8c-1-1.2-1.9-2.5-2.8-3.8c-0.9-1.3-1.8-2.6-2.7-3.9c-0.8-1.3-1.6-2.6-2.4-3.9c-1.1-2-2.2-4-3.2-6
			c-0.1-0.2-0.2-0.3-0.3-0.5c-0.2-0.4-0.4-0.8-0.6-1.3c-0.2-0.3-0.3-0.6-0.5-1c-0.2-0.4-0.4-0.9-0.6-1.3c-0.1-0.2-0.2-0.5-0.3-0.7
			c-0.3-0.6-0.5-1.2-0.8-1.8c-0.3-0.7-0.6-1.4-0.8-2.1c-0.1-0.1-0.1-0.3-0.2-0.4c-0.2-0.7-0.5-1.3-0.7-2c0,0,0,0,0,0
			c-0.5-1.5-1-3-1.5-4.5c-0.2-0.8-0.5-1.5-0.7-2.3c-0.9-3.1-1.6-6.2-2.2-9.4c-0.2-0.8-0.3-1.6-0.4-2.4c-0.1-0.7-0.2-1.5-0.3-2.2
			c0-0.1,0-0.2,0-0.3c-0.1-0.7-0.2-1.4-0.2-2c0-0.1,0-0.2,0-0.3h-2.6c-8,0-14.4-6.5-14.4-14.4v-13.8c0-8,6.5-14.4,14.4-14.4h2
			l19.9-15.5C171.9,244.6,215.9,304.7,274.7,321z"/>
		<g id="XMLID_3131_">
			<path id="XMLID_3135_" class="st96" d="M170.1,167.8c0,1.5,0,3,0,4.4l-19.9,15.5h-2c-8,0-14.4,6.4-14.4,14.4v-40.9
				c0-33.4,13.5-63.6,35.4-85.5c14.2-14.2,32-24.9,51.8-30.6C190,74,170.1,118.2,170.1,167.8z"/>
			<path id="XMLID_3133_" class="st96" d="M175,286.1c-0.5-0.6-1-1.2-1.5-1.7c-0.5-0.6-1-1.2-1.4-1.8c-1-1.2-1.9-2.5-2.8-3.8
				c-0.9-1.3-1.8-2.6-2.7-3.9c-0.8-1.3-1.6-2.6-2.4-3.9c-1.1-2-2.2-4-3.2-6c-0.1-0.2-0.2-0.4-0.3-0.5c-0.2-0.4-0.4-0.8-0.6-1.3
				c-0.1-0.3-0.3-0.6-0.5-1c-0.2-0.4-0.4-0.9-0.6-1.3c-0.1-0.2-0.2-0.5-0.3-0.7c-0.3-0.6-0.5-1.2-0.8-1.8c-0.3-0.7-0.6-1.4-0.8-2
				c0-0.1-0.1-0.3-0.2-0.4c-0.2-0.7-0.5-1.3-0.7-2c0,0,0,0,0,0c-0.5-1.5-1-3-1.5-4.5c-0.2-0.8-0.5-1.5-0.7-2.3
				c-0.9-3.1-1.6-6.2-2.2-9.4c-0.2-0.8-0.3-1.6-0.4-2.4c-0.1-0.7-0.2-1.5-0.3-2.2c0-0.1,0-0.2,0-0.3c-0.1-0.7-0.2-1.4-0.2-2
				c0-0.1,0-0.2,0-0.3h-2.6c-8,0-14.4-6.4-14.4-14.4v7.5c0,28.9,17.6,53.8,42.7,64.4C176,287.3,175.5,286.7,175,286.1
				C175,286.1,175,286.1,175,286.1z"/>
		</g>
		<path id="XMLID_3127_" class="st21" d="M260.8,234.9h-12.9c-4.3,0-7.7-3.4-7.7-7.7v0c0-4.3,3.4-7.7,7.7-7.7h12.9
			c4.3,0,7.7,3.4,7.7,7.7v0C268.5,231.4,265,234.9,260.8,234.9z"/>
		<path id="XMLID_3124_" class="st71" d="M244.7,259.2c5.5,5.5,14.5,5.5,20,0"/>
		<line id="XMLID_3123_" class="st71" x1="244.7" y1="275.3" x2="264.6" y2="275.3"/>
		<path id="XMLID_3122_" class="st23" d="M303.7,160.3c-19.8,0-36.3,14.2-39.8,33h-20.8c-3.5-18.8-20-33-39.8-33
			c-22.4,0-40.5,18.1-40.5,40.5c0,22.4,18.1,40.5,40.5,40.5c19.8,0,36.3-14.2,39.8-33h20.8c3.5,18.8,20,33,39.8,33
			c22.4,0,40.5-18.1,40.5-40.5C344.2,178.5,326.1,160.3,303.7,160.3z"/>
		<circle id="XMLID_3106_" class="st235" cx="203.4" cy="200.8" r="30.8"/>
		<circle id="XMLID_3104_" class="st235" cx="303.7" cy="200.8" r="30.8"/>
		<circle id="XMLID_3101_" class="st16" cx="254.6" cy="420.7" r="9.9"/>
		<circle id="XMLID_3087_" class="st16" cx="254.6" cy="451.2" r="9.9"/>
		<circle id="XMLID_3086_" class="st16" cx="254.6" cy="481.7" r="9.9"/>
		<path id="XMLID_3084_" class="st71" d="M313.7,204.2c-5.5-5.5-14.5-5.5-20,0"/>
		<path id="XMLID_3081_" class="st71" d="M214.3,204.2c-5.5-5.5-14.5-5.5-20,0"/>
		<path id="XMLID_3177_" class="st51" d="M194.2,347.1v157.4c-8.9-2.2-17.7-4.9-26.2-8c-4.7-1.7-9.2-3.5-13.8-5.5
			c-1.9-0.8-3.7-1.6-5.6-2.5V347.1c0-1.4,0.2-2.8,0.6-4.1c0.1-0.4,0.3-0.9,0.5-1.3c0.2-0.4,0.4-0.8,0.6-1.2c0.2-0.4,0.4-0.8,0.7-1.1
			c0.5-0.7,1.1-1.4,1.7-2c0.6-0.6,1.3-1.2,2-1.7c0.4-0.2,0.7-0.5,1.1-0.7c0.2-0.1,0.4-0.2,0.6-0.3c0.4-0.2,0.8-0.4,1.2-0.5
			c1.5-0.5,3.1-0.8,4.8-0.8h18c0.2,0,0.4,0,0.6,0c6.7,0.3,12.1,5.3,13,11.8c0,0.1,0,0.2,0,0.4C194.2,346,194.2,346.6,194.2,347.1z"
			/>
		<path id="XMLID_2623_" class="st36" d="M181.1,333.3c-6.6,0.3-12,5.4-12.9,11.8c0,0,0,0,0,0c-0.1,0.6-0.1,1.3-0.1,1.9v149.4
			c-4.7-1.7-9.2-3.5-13.8-5.5c-1.9-0.8-3.7-1.6-5.6-2.5V347.1c0-1.4,0.2-2.8,0.6-4.1c0.1-0.4,0.3-0.9,0.5-1.3
			c0.2-0.4,0.4-0.8,0.6-1.2c0.2-0.4,0.4-0.8,0.7-1.1c0.5-0.7,1.1-1.4,1.7-2c0.6-0.6,1.3-1.2,2-1.7c0.4-0.2,0.7-0.5,1.1-0.7
			c0.2-0.1,0.4-0.2,0.6-0.3c0.4-0.2,0.8-0.4,1.2-0.5c1.5-0.5,3.1-0.8,4.8-0.8h18C180.7,333.3,180.9,333.3,181.1,333.3z"/>
		<path id="XMLID_3070_" class="st20" d="M455.3,379.3h-54.7v-32.7c0-15.1,12.2-27.3,27.3-27.3h0c15.1,0,27.3,12.2,27.3,27.3V379.3z
			"/>
		<path id="XMLID_3069_" class="st21" d="M436,320.5c-11.2,3.4-19.3,13.8-19.3,26.1v32.7h-16v-32.7c0-15.1,12.2-27.3,27.3-27.3
			C430.8,319.3,433.5,319.7,436,320.5z"/>
	</g>
</g>
</svg>
